<svg version="1.1" id="Layer_1" xmlns="http://www.w3.org/2000/svg" xmlns:xlink="http://www.w3.org/1999/xlink" x="0px" y="0px"
	 width="100%" viewBox="0 0 192 192" enable-background="new 0 0 192 192" xml:space="preserve">
<path fill="#232323" opacity="1.000000" stroke="none" 
	d="
M118.000000,193.000000 
	C78.691963,193.000000 39.883923,193.000000 1.037942,193.000000 
	C1.037942,129.067001 1.037942,65.133972 1.037942,1.100472 
	C64.891190,1.100472 128.782593,1.100472 192.837006,1.100472 
	C192.837006,64.999664 192.837006,128.999802 192.837006,193.000000 
	C168.134262,193.000000 143.317123,193.000000 118.000000,193.000000 
M111.888947,154.959274 
	C122.719124,154.959076 133.549438,154.994400 144.379456,154.950409 
	C160.897354,154.883286 173.404861,142.992554 173.636658,126.550667 
	C173.913788,106.893654 173.889404,87.227303 173.637115,67.569603 
	C173.451721,53.125923 164.097839,41.426277 149.745575,39.988274 
	C136.306351,38.641743 122.626183,39.700081 109.052032,39.698132 
	C108.976418,39.846603 108.834747,39.994976 108.834518,40.143566 
	C108.775620,77.461426 108.709534,114.779335 108.773338,152.097015 
	C108.774971,153.051331 110.204964,154.003174 111.888947,154.959274 
M43.876137,155.957672 
	C49.535835,155.998337 55.225563,156.432907 60.849464,156.004105 
	C76.274399,154.828064 88.010841,138.947525 85.027748,123.299881 
	C81.922150,122.870193 78.717567,122.426811 75.011360,121.914032 
	C75.011360,124.573364 75.084740,126.709572 74.998688,128.839325 
	C74.621277,138.180435 67.750473,145.622070 58.462181,146.459030 
	C54.829765,146.786346 51.114365,146.783981 47.484669,146.434357 
	C38.243435,145.544205 31.114351,138.041840 31.036137,128.717621 
	C30.858622,107.555107 30.880125,86.389297 31.041395,65.226509 
	C31.092098,58.572647 34.224743,52.793819 40.314533,50.373928 
	C45.355862,48.370670 51.231934,47.830151 56.746250,47.791386 
	C67.373192,47.716675 74.783768,55.540878 75.018394,66.143867 
	C75.060997,68.068993 75.024460,69.995872 75.024460,72.295784 
	C78.970573,71.724937 82.198166,71.258034 85.286331,70.811295 
	C86.717796,56.272030 80.042038,44.152020 67.248550,39.774498 
	C61.769329,37.899685 55.472282,37.946873 49.545467,37.936951 
	C32.456184,37.908340 20.691330,49.646778 20.546644,66.799995 
	C20.376574,86.962845 20.404846,107.128922 20.541338,127.292282 
	C20.640257,141.904968 28.778418,152.039673 43.876137,155.957672 
z"/>
<path fill="#F9F9F9" opacity="1.000000" stroke="none" 
	d="
M111.428879,154.957733 
	C110.204964,154.003174 108.774971,153.051331 108.773338,152.097015 
	C108.709534,114.779335 108.775620,77.461426 108.834518,40.143566 
	C108.834747,39.994976 108.976418,39.846603 109.052048,39.699104 
	C122.626183,39.700081 136.306351,38.641743 149.745575,39.988274 
	C164.097839,41.426277 173.451721,53.125923 173.637115,67.569603 
	C173.889404,87.227303 173.913788,106.893654 173.636658,126.550667 
	C173.404861,142.992554 160.897354,154.883286 144.379456,154.950409 
	C133.549438,154.994400 122.719124,154.959076 111.428879,154.957733 
M119.084663,90.499985 
	C119.084663,108.561096 119.084663,126.622208 119.084663,144.961121 
	C127.208023,144.961121 134.673889,144.963974 142.139755,144.958481 
	C143.470276,144.957504 144.808228,145.005981 146.130096,144.888855 
	C155.829956,144.029297 163.052719,136.549149 163.138809,126.670715 
	C163.309906,107.041939 163.294601,87.409981 163.157516,67.780716 
	C163.089767,58.081558 156.983276,50.575737 147.346268,49.693901 
	C138.166092,48.853867 128.848755,49.512928 119.084663,49.512928 
	C119.084663,62.978279 119.084663,76.239120 119.084663,90.499985 
z"/>
<path fill="#F9F9F9" opacity="1.000000" stroke="none" 
	d="
M43.452412,155.897064 
	C28.778418,152.039673 20.640257,141.904968 20.541338,127.292282 
	C20.404846,107.128922 20.376574,86.962845 20.546644,66.799995 
	C20.691330,49.646778 32.456184,37.908340 49.545467,37.936951 
	C55.472282,37.946873 61.769329,37.899685 67.248550,39.774498 
	C80.042038,44.152020 86.717796,56.272030 85.286331,70.811295 
	C82.198166,71.258034 78.970573,71.724937 75.024460,72.295784 
	C75.024460,69.995872 75.060997,68.068993 75.018394,66.143867 
	C74.783768,55.540878 67.373192,47.716675 56.746250,47.791386 
	C51.231934,47.830151 45.355862,48.370670 40.314533,50.373928 
	C34.224743,52.793819 31.092098,58.572647 31.041395,65.226509 
	C30.880125,86.389297 30.858622,107.555107 31.036137,128.717621 
	C31.114351,138.041840 38.243435,145.544205 47.484669,146.434357 
	C51.114365,146.783981 54.829765,146.786346 58.462181,146.459030 
	C67.750473,145.622070 74.621277,138.180435 74.998688,128.839325 
	C75.084740,126.709572 75.011360,124.573364 75.011360,121.914032 
	C78.717567,122.426811 81.922150,122.870193 85.027748,123.299881 
	C88.010841,138.947525 76.274399,154.828064 60.849464,156.004105 
	C55.225563,156.432907 49.535835,155.998337 43.452412,155.897064 
z"/>
<path fill="#242424" opacity="1.000000" stroke="none" 
	d="
M119.084663,89.999977 
	C119.084663,76.239120 119.084663,62.978279 119.084663,49.512928 
	C128.848755,49.512928 138.166092,48.853867 147.346268,49.693901 
	C156.983276,50.575737 163.089767,58.081558 163.157516,67.780716 
	C163.294601,87.409981 163.309906,107.041939 163.138809,126.670715 
	C163.052719,136.549149 155.829956,144.029297 146.130096,144.888855 
	C144.808228,145.005981 143.470276,144.957504 142.139755,144.958481 
	C134.673889,144.963974 127.208023,144.961121 119.084663,144.961121 
	C119.084663,126.622208 119.084663,108.561096 119.084663,89.999977 
z"/>
</svg>